<?xml version="1.0" standalone="no"?>
<!DOCTYPE svg PUBLIC "-//W3C//DTD SVG 20010904//EN"
 "http://www.w3.org/TR/2001/REC-SVG-20010904/DTD/svg10.dtd">
<svg version="1.0" xmlns="http://www.w3.org/2000/svg"
 width="128.000000pt" height="128.000000pt" viewBox="0 0 128.000000 128.000000"
 preserveAspectRatio="xMidYMid meet">
<metadata>
Created by potrace 1.14, written by Peter Selinger 2001-2017
</metadata>
<g transform="translate(0.000000,128.000000) scale(0.100000,-0.100000)"
fill="#000000" stroke="none">
<path d="M624 1235 c-25 -16 -54 -24 -83 -25 -37 0 -48 -5 -80 -38 -130 -138
-151 -170 -171 -257 -7 -33 -18 -69 -23 -80 -6 -11 -11 -33 -13 -49 -1 -16
-11 -36 -21 -45 -31 -25 -78 -92 -103 -146 -13 -27 -39 -68 -57 -90 -35 -41
-40 -70 -11 -70 9 0 27 -11 39 -25 26 -28 48 -31 71 -12 13 11 16 6 20 -36 7
-70 58 -173 113 -226 75 -73 206 -113 337 -102 115 10 194 38 400 144 222 114
228 122 126 171 -35 16 -79 36 -99 44 -36 15 -36 16 -49 98 -7 46 -22 113 -33
149 -11 36 -23 92 -27 125 -4 33 -18 103 -30 155 -13 52 -24 115 -25 140 -2
25 -3 54 -4 65 0 12 -18 40 -38 63 -32 37 -42 42 -78 42 -22 0 -45 4 -50 9
-24 21 -72 20 -111 -4z m123 -370 c38 -25 48 -36 67 -72 21 -42 20 -54 -8 -77
-23 -19 -25 -56 -3 -83 5 -7 6 -13 2 -13 -11 0 -34 30 -46 60 -8 20 -12 22
-19 10 -5 -8 -7 -26 -5 -40 3 -14 2 -19 -1 -12 -3 6 -10 9 -15 6 -6 -3 -5 -12
3 -21 7 -8 17 -24 23 -36 12 -24 38 -36 29 -14 -3 8 -1 18 5 21 6 4 19 -12 30
-34 14 -29 15 -38 5 -30 -7 7 -14 20 -15 29 -1 9 -4 5 -8 -9 -10 -31 7 -70 20
-49 5 8 9 11 10 7 6 -30 20 -58 30 -58 5 0 7 12 3 27 l-6 28 14 -25 c8 -14 10
-27 6 -28 -4 -2 -6 -8 -2 -13 3 -5 -2 -12 -10 -15 -20 -8 -21 -38 -1 -54 9 -7
14 -26 12 -46 -2 -35 -28 -54 -81 -59 -19 -2 -23 1 -19 16 3 11 0 26 -6 33 -7
8 -13 28 -13 45 -1 17 -5 31 -10 31 -16 0 -8 19 12 25 11 3 20 11 20 17 0 5
-6 8 -14 5 -8 -3 -20 1 -26 9 -7 8 -8 14 -2 14 5 0 18 12 27 28 l18 27 -21
-19 c-12 -11 -22 -16 -22 -12 0 4 -8 2 -18 -3 -14 -7 -20 -4 -29 15 -6 13 -7
22 -2 18 5 -3 9 2 9 11 0 12 -5 15 -16 11 -14 -5 -15 -4 -5 8 9 11 10 20 1 35
-10 19 -7 25 13 22 4 0 7 6 7 14 0 19 -10 19 -38 -1 -22 -15 -24 -15 -29 5 -5
21 -7 21 -24 5 -11 -9 -19 -13 -19 -7 0 5 -16 26 -35 46 -28 28 -31 36 -18 41
13 5 13 9 2 23 -12 15 -12 16 4 10 12 -4 16 -3 11 4 -3 6 5 22 17 36 13 13 23
28 22 31 -1 4 5 6 13 6 8 -1 14 4 14 12 0 8 4 14 9 14 5 0 13 9 16 20 4 11 10
18 15 15 5 -3 11 -1 14 4 9 14 51 6 83 -14z m-193 -264 c7 -11 -3 -41 -14 -41
-11 0 -21 30 -14 41 3 5 9 9 14 9 5 0 11 -4 14 -9z m353 -53 c-3 -8 -6 -5 -6
6 -1 11 2 17 5 13 3 -3 4 -12 1 -19z m33 -104 c0 -38 -16 -35 -18 4 -2 20 -8
42 -13 49 -6 6 -7 17 -3 24 8 14 34 -43 34 -77z m-640 56 c0 -7 6 -7 20 0 11
6 20 8 20 6 0 -3 -18 -15 -39 -26 -44 -22 -61 -42 -42 -48 8 -3 5 -9 -9 -19
l-21 -15 27 -35 c15 -20 20 -33 12 -31 -7 2 -14 -1 -15 -7 0 -5 3 -9 9 -7 10
3 3 -29 -12 -57 -13 -24 -28 17 -35 96 -9 84 0 147 19 140 7 -3 19 -1 27 4 19
12 39 11 39 -1z m80 -30 c0 -5 -5 -10 -11 -10 -5 0 -7 5 -4 10 3 6 8 10 11 10
2 0 4 -4 4 -10z m630 -32 c0 -5 -4 -8 -10 -8 -5 0 -10 10 -10 23 0 18 2 19 10
7 5 -8 10 -18 10 -22z m-740 -48 c0 -5 -4 -10 -10 -10 -5 0 -10 5 -10 10 0 6
5 10 10 10 6 0 10 -4 10 -10z m164 -24 c-6 -16 -24 -13 -24 5 0 6 5 7 10 4 6
-3 10 -1 10 6 0 7 2 10 5 7 3 -3 3 -13 -1 -22z m170 -42 c4 -10 1 -14 -6 -12
-15 5 -23 28 -10 28 5 0 13 -7 16 -16z m404 -34 c9 0 24 -5 32 -11 12 -8 9 -9
-13 -5 -29 7 -64 -15 -53 -33 8 -12 -13 -27 -47 -35 -15 -4 -25 -11 -22 -16 3
-5 -9 -13 -27 -18 -18 -5 -32 -14 -31 -20 1 -5 -8 -9 -22 -8 -13 2 -26 -3 -29
-11 -3 -7 -9 -12 -13 -11 -14 4 -92 -35 -87 -44 3 -4 -2 -5 -10 -2 -9 3 -13
10 -10 15 3 5 1 9 -5 9 -5 0 -12 -6 -14 -12 -4 -9 -6 -8 -6 2 -1 19 -44 21
-63 3 -15 -16 -42 -17 -32 -1 4 6 -3 4 -17 -5 -13 -9 -35 -17 -48 -17 l-25 0
22 16 c26 18 29 44 6 44 -10 0 -14 -6 -10 -15 4 -10 -1 -15 -15 -15 -11 0 -18
3 -16 7 3 5 -5 8 -18 8 -17 0 -21 -3 -14 -12 8 -8 4 -10 -13 -6 -31 8 -63 31
-63 45 0 6 -6 13 -14 16 -9 3 -11 0 -5 -9 7 -12 5 -12 -9 0 -9 7 -17 22 -17
32 0 11 -4 19 -10 19 -5 0 -10 5 -10 12 0 9 3 9 11 1 6 -6 17 -10 23 -9 6 2 8
1 4 -1 -13 -8 -9 -23 6 -23 8 0 22 10 30 22 18 26 20 20 6 -16 -7 -19 -5 -30
8 -46 17 -20 19 -21 32 -5 11 13 11 18 1 25 -9 5 -10 10 -2 14 6 4 11 2 11 -4
0 -6 10 -8 24 -4 13 3 27 1 30 -5 4 -6 14 -11 23 -11 9 0 25 -7 35 -16 16 -16
18 -16 24 0 8 21 33 21 50 -2 7 -9 14 -12 14 -5 0 6 -4 15 -10 18 -18 11 -10
26 10 20 15 -5 22 0 29 18 10 25 43 43 60 33 5 -4 11 -1 13 4 2 6 32 17 66 25
70 17 172 61 172 76 0 5 9 0 20 -11 11 -11 28 -20 38 -20z m202 0 c-24 -15
-36 -11 -14 4 10 8 21 12 24 10 2 -3 -2 -9 -10 -14z m-901 -46 c-13 -16 -49
-19 -49 -4 0 6 7 10 16 10 8 0 13 4 10 9 -4 5 3 7 14 4 16 -4 18 -8 9 -19z
m258 -180 c-3 -3 -12 -4 -19 -1 -8 3 -5 6 6 6 11 1 17 -2 13 -5z m96 -1 c-13
-2 -35 -2 -50 0 -16 2 -5 4 22 4 28 0 40 -2 28 -4z"/>
<path d="M695 597 c-19 -15 -13 -37 10 -37 9 0 12 6 8 16 -3 9 0 20 8 25 8 5
9 9 3 9 -5 0 -18 -6 -29 -13z"/>
<path d="M765 480 c-6 -10 15 -50 28 -50 4 0 5 5 2 10 -3 6 -1 10 5 10 8 0 8
6 0 20 -12 22 -25 26 -35 10z"/>
<path d="M820 453 c0 -13 5 -23 10 -23 13 0 13 11 0 30 -8 12 -10 11 -10 -7z"/>
<path d="M766 374 c-10 -27 -7 -54 8 -60 8 -3 12 -13 10 -22 -5 -14 -3 -14 6
1 7 12 18 16 31 12 13 -5 19 -2 19 10 0 10 5 13 13 9 8 -5 8 -2 -2 9 -7 9 -10
17 -7 17 4 0 2 9 -4 20 -13 25 -65 28 -74 4z m38 0 c9 -3 16 -13 16 -21 0 -10
-6 -13 -16 -9 -9 3 -18 6 -20 6 -2 0 -4 7 -4 15 0 17 2 18 24 9z"/>
<path d="M230 350 c0 -5 5 -10 10 -10 6 0 10 5 10 10 0 6 -4 10 -10 10 -5 0
-10 -4 -10 -10z"/>
</g>
</svg>
